<?xml version="1.0" encoding="UTF-8"?><svg xmlns="http://www.w3.org/2000/svg" xmlns:xlink="http://www.w3.org/1999/xlink" viewBox="0 0 5050 901"><defs><style>.cls-1{font-family:ChakraPetch-Bold, 'Chakra Petch';font-size:523.83px;font-weight:700;}.cls-2,.cls-3{fill:#fdbd53;}.cls-4{fill:url(#linear-gradient);}.cls-4,.cls-3,.cls-5,.cls-6,.cls-7,.cls-8{stroke-width:0px;}.cls-9{stroke-width:3.8px;}.cls-9,.cls-10,.cls-11,.cls-12,.cls-13,.cls-14{fill:none;stroke-miterlimit:10;}.cls-9,.cls-13{stroke:#fff;}.cls-10,.cls-11,.cls-12,.cls-14{stroke:#fdbd53;}.cls-10,.cls-13{stroke-width:2.57px;}.cls-11{stroke-width:8.56px;}.cls-12{stroke-width:3.65px;}.cls-5,.cls-15{fill:#cc7900;}.cls-6{fill:url(#linear-gradient-2);}.cls-7{fill:url(#linear-gradient-3);}.cls-8{fill:#232323;}.cls-15{letter-spacing:0em;}.cls-14{stroke-width:3.65px;}</style><linearGradient id="linear-gradient" x1="300.23" y1="159.21" x2="410.02" y2="159.21" gradientTransform="translate(-27.16 162.97) rotate(7.48)" gradientUnits="userSpaceOnUse"><stop offset=".58" stop-color="#fdbd53"/><stop offset=".59" stop-color="rgba(244,183,81,.96)" stop-opacity=".96"/><stop offset=".64" stop-color="rgba(190,146,72,.74)" stop-opacity=".74"/><stop offset=".69" stop-color="rgba(143,113,64,.54)" stop-opacity=".54"/><stop offset=".74" stop-color="rgba(102,85,58,.38)" stop-opacity=".38"/><stop offset=".79" stop-color="rgba(69,62,52,.24)" stop-opacity=".24"/><stop offset=".84" stop-color="rgba(44,45,48,.13)" stop-opacity=".13"/><stop offset=".89" stop-color="rgba(26,32,45,.06)" stop-opacity=".06"/><stop offset=".94" stop-color="rgba(15,25,43,.01)" stop-opacity=".01"/><stop offset=".99" stop-color="#0c172b" stop-opacity="0"/></linearGradient><linearGradient id="linear-gradient-2" x1="413.21" y1="426.61" x2="551.3" y2="426.61" gradientTransform="translate(-17.76 110.01) rotate(4.93)" xlink:href="#linear-gradient"/><linearGradient id="linear-gradient-3" x1="285.84" y1="258.79" x2="484.08" y2="258.79" gradientTransform="translate(-17.76 110.01) rotate(4.93)" xlink:href="#linear-gradient"/></defs><g id="Background_2"><rect class="cls-8" x="-.5" y="-.5" width="5048" height="902"/></g><g id="Logo_Text_2"><text class="cls-1" transform="translate(1033.13 634.75)"><tspan class="cls-2" x="0" y="0">Pioneer </tspan><tspan class="cls-15" x="2068.59" y="0">Orbitals</tspan></text></g><g id="Logo_2"><polygon class="cls-3" points="143.14 448.48 .16 448.48 156.66 506.36 150.32 448.48 143.14 448.48"/><polyline class="cls-5" points=".16 448.48 156.66 394.94 150.32 448.48"/><polygon class="cls-3" points="420.38 728.43 420.38 871.42 478.26 714.91 420.38 721.25 420.38 728.43"/><polyline class="cls-5" points="420.38 871.42 366.84 714.91 420.38 721.25"/><polygon class="cls-3" points="699.24 453.44 842.23 453.44 685.72 395.56 692.06 453.44 699.24 453.44"/><polyline class="cls-5" points="842.23 453.44 685.72 506.98 692.06 453.44"/><polygon class="cls-3" points="422.01 173.48 422.01 30.5 364.12 187.01 422.01 180.66 422.01 173.48"/><polyline class="cls-5" points="422.01 30.5 475.54 187.01 422.01 180.66"/><line class="cls-14" x1="206.54" y1="450.6" x2="223.77" y2="450.67"/><line class="cls-12" x1="421.64" y1="649.94" x2="421.61" y2="666.75"/><line class="cls-12" x1="422.4" y1="234.59" x2="422.37" y2="252.87"/><line class="cls-14" x1="560.91" y1="309.88" x2="573.91" y2="296.72"/><line class="cls-14" x1="270.67" y1="603.7" x2="282.73" y2="591.49"/><line class="cls-14" x1="281.45" y1="311.48" x2="268.6" y2="298.79"/><line class="cls-14" x1="575.58" y1="602.03" x2="562.57" y2="589.18"/><circle class="cls-11" cx="420.82" cy="451.46" r="270"/><path class="cls-3" d="M170.78,544.7c-34.42,31-50.63,53.03-46.13,60.99l26.72-17.69c-1.82-3.14,6.95-13.73,24.18-29.35"/><circle class="cls-10" cx="421.49" cy="450.64" r="198.44"/><path class="cls-4" d="M246.76,397.14c62.1-7.14,86.44-23.2,117.3-64.18,0,0-22.97,33.93-46.43,46.53-27.51,14.78-45.5,16.85-73.25,21.61"/><path class="cls-6" d="M353.02,619.96c78.73-12.62,109.34-35.82,146.34-89.79,0,0-27.34,44.54-56.53,61.94-34.22,20.4-50.75,23.38-85.85,31.02"/><path class="cls-7" d="M238.88,460.89c113.34-18.17,156.68-49.63,209.95-127.32,0,0-39.36,64.12-81.37,89.16-49.26,29.36-76.79,34.68-127.31,45.68"/><circle class="cls-9" cx="420.67" cy="451.51" r="181.85"/><circle class="cls-10" cx="421.67" cy="450.5" r="198.44"/><path class="cls-3" d="M623.42,365.42c-24.58,16.65,3.17,0-.79-11.1l-19.03,3.17c-21.41,15.07-11.98,25.45-160.18,111.01-148.2,85.56-286.08,129.84-292.05,119.49l-26.72,17.69c12.94,9.89,141.29-19.66,310.75-115.3"/><path class="cls-3" d="M435.4,490.39c7.1-4.01,14.27-8.13,21.5-12.37,84.85-49.71,135.79-88.75,173.66-123.7"/><path class="cls-3" d="M626.34,342.47l-51.84,19.31c-4.16,1.55-5.59,6.71-2.82,10.17l21.96,27.53c2.8,3.51,8.21,3.22,10.63-.56l29.86-46.81c3.37-5.29-1.91-11.83-7.79-9.64Z"/><line class="cls-14" x1="206.53" y1="450.35" x2="223.76" y2="450.42"/><line class="cls-14" x1="619.5" y1="450.41" x2="636.73" y2="450.47"/><circle class="cls-13" cx="420.44" cy="451.08" r="250.18"/></g></svg>