<?xml version="1.0" encoding="UTF-8"?><svg id="Logo_3" xmlns="http://www.w3.org/2000/svg" xmlns:xlink="http://www.w3.org/1999/xlink" viewBox="0 0 1900 1900"><defs><style>.cls-1{fill:url(#linear-gradient-2);}.cls-2{stroke-width:19.35px;}.cls-2,.cls-3,.cls-4,.cls-5,.cls-6,.cls-7{fill:none;stroke-miterlimit:10;}.cls-2,.cls-3,.cls-5,.cls-7{stroke:#fdbd53;}.cls-8{fill:url(#linear-gradient-3);}.cls-9{fill:#cc7900;}.cls-3,.cls-6{stroke-width:5.8px;}.cls-4{stroke-width:8.59px;}.cls-4,.cls-6{stroke:#fff;}.cls-5{stroke-width:8.25px;}.cls-10{fill:#fdbd53;}.cls-7{stroke-width:8.24px;}.cls-11{fill:url(#linear-gradient);}</style><linearGradient id="linear-gradient" x1="824.68" y1="503.24" x2="1072.75" y2="503.24" gradientTransform="translate(-189.37 137.47) rotate(7.48)" gradientUnits="userSpaceOnUse"><stop offset=".58" stop-color="#fdbd53"/><stop offset=".59" stop-color="#f4b751" stop-opacity=".96"/><stop offset=".64" stop-color="#be9248" stop-opacity=".74"/><stop offset=".69" stop-color="#8f7140" stop-opacity=".54"/><stop offset=".74" stop-color="#66553a" stop-opacity=".38"/><stop offset=".79" stop-color="#453e34" stop-opacity=".24"/><stop offset=".84" stop-color="#2c2d30" stop-opacity=".13"/><stop offset=".89" stop-color="#1a202d" stop-opacity=".06"/><stop offset=".94" stop-color="#0f192b" stop-opacity=".01"/><stop offset=".99" stop-color="#0c172b" stop-opacity="0"/></linearGradient><linearGradient id="linear-gradient-2" x1="1023.84" y1="1040.01" x2="1335.84" y2="1040.01" gradientTransform="translate(-125.05 95.59) rotate(4.93)" xlink:href="#linear-gradient"/><linearGradient id="linear-gradient-3" x1="736.04" y1="660.83" x2="1183.95" y2="660.83" gradientTransform="translate(-125.05 95.59) rotate(4.93)" xlink:href="#linear-gradient"/></defs><polygon class="cls-10" points="321.83 943.89 -1.23 943.89 352.39 1074.68 338.06 943.89 321.83 943.89"/><polyline class="cls-9" points="-1.23 943.89 352.39 822.93 338.06 943.89"/><polygon class="cls-10" points="948.23 1576.44 948.23 1899.5 1079.02 1545.88 948.23 1560.21 948.23 1576.44"/><polyline class="cls-9" points="948.23 1899.5 827.27 1545.88 948.23 1560.21"/><polygon class="cls-10" points="1578.32 955.11 1901.38 955.11 1547.76 824.32 1562.1 955.11 1578.32 955.11"/><polyline class="cls-9" points="1901.38 955.11 1547.76 1076.07 1562.1 955.11"/><polygon class="cls-10" points="951.92 322.56 951.92 -.5 821.13 353.12 951.92 338.79 951.92 322.56"/><polyline class="cls-9" points="951.92 -.5 1072.88 353.12 951.92 338.79"/><line class="cls-7" x1="465.08" y1="948.7" x2="504.01" y2="948.84"/><line class="cls-5" x1="951.09" y1="1399.09" x2="951.02" y2="1437.06"/><line class="cls-5" x1="952.81" y1="460.62" x2="952.74" y2="501.94"/><line class="cls-7" x1="1265.77" y1="630.74" x2="1295.14" y2="601.01"/><line class="cls-7" x1="609.98" y1="1294.61" x2="637.23" y2="1267.02"/><line class="cls-7" x1="634.34" y1="634.36" x2="605.31" y2="605.68"/><line class="cls-7" x1="1298.91" y1="1290.84" x2="1269.52" y2="1261.81"/><circle class="cls-2" cx="949.23" cy="950.63" r="610.05"/><path class="cls-10" d="M384.28,1161.3c-77.76,70.05-114.39,119.81-104.22,137.81l60.36-39.97c-4.1-7.1,15.7-31.03,54.64-66.32"/><circle class="cls-3" cx="950.75" cy="948.77" r="448.36"/><path class="cls-11" d="M555.97,827.9c140.31-16.13,195.3-52.42,265.03-145,0,0-51.89,76.66-104.9,105.14-62.15,33.4-102.8,38.07-165.5,48.82"/><path class="cls-1" d="M796.05,1331.35c177.89-28.52,247.04-80.93,330.65-202.87,0,0-61.78,100.63-127.72,139.94-77.31,46.09-114.68,52.83-193.98,70.09"/><path class="cls-8" d="M538.16,971.94c256.09-41.06,354.01-112.13,474.37-287.66,0,0-88.93,144.87-183.86,201.46-111.3,66.35-173.49,78.36-287.65,103.2"/><circle class="cls-4" cx="948.89" cy="950.74" r="410.88"/><circle class="cls-3" cx="951.15" cy="948.47" r="448.36"/><path class="cls-10" d="M1406.99,756.24c-55.54,37.62,7.17,0-1.79-25.08l-43,7.17c-48.37,34.04-27.06,57.5-361.91,250.83-334.85,193.32-646.38,293.36-659.87,269.98l-60.36,39.97c29.23,22.36,319.25-44.42,702.12-260.51"/><path class="cls-10" d="M982.17,1038.59c16.03-9.05,32.23-18.36,48.58-27.94,191.72-112.33,306.82-200.53,392.37-279.49"/><path class="cls-10" d="M1413.59,704.37l-117.13,43.62c-9.39,3.5-12.62,15.15-6.37,22.98l49.62,62.21c6.32,7.92,18.56,7.28,24.01-1.27l67.47-105.76c7.62-11.95-4.33-26.73-17.61-21.78Z"/><line class="cls-7" x1="465.07" y1="948.13" x2="504" y2="948.27"/><line class="cls-7" x1="1398.14" y1="948.26" x2="1437.07" y2="948.4"/><circle class="cls-6" cx="948.39" cy="949.79" r="565.27"/></svg>